<mxfile host="app.diagrams.net" modified="2024-04-15T08:36:20.332Z" agent="Mozilla/5.0 (X11; Linux x86_64; rv:122.0) Gecko/20100101 Firefox/122.0" etag="Fkwa2PRSOH3U7DHty0BF" version="24.2.5" type="github">
  <diagram name="Page-1" id="c4tfYbR3UJZftyZU3BXN">
    <mxGraphModel dx="1019" dy="513" grid="1" gridSize="10" guides="1" tooltips="1" connect="1" arrows="1" fold="1" page="1" pageScale="1" pageWidth="850" pageHeight="1100" math="0" shadow="0">
      <root>
        <mxCell id="0" />
        <mxCell id="1" parent="0" />
        <mxCell id="DQJm9BZzZTxkYq87aLKx-10" style="edgeStyle=orthogonalEdgeStyle;rounded=0;orthogonalLoop=1;jettySize=auto;html=1;exitX=1;exitY=0.75;exitDx=0;exitDy=0;entryX=0;entryY=0.75;entryDx=0;entryDy=0;startArrow=classic;startFill=1;" edge="1" parent="1" source="DQJm9BZzZTxkYq87aLKx-3" target="DQJm9BZzZTxkYq87aLKx-4">
          <mxGeometry relative="1" as="geometry" />
        </mxCell>
        <mxCell id="DQJm9BZzZTxkYq87aLKx-23" style="edgeStyle=orthogonalEdgeStyle;rounded=0;orthogonalLoop=1;jettySize=auto;html=1;exitX=0.75;exitY=0;exitDx=0;exitDy=0;entryX=0.75;entryY=1;entryDx=0;entryDy=0;startArrow=classic;startFill=1;" edge="1" parent="1" source="DQJm9BZzZTxkYq87aLKx-3" target="DQJm9BZzZTxkYq87aLKx-22">
          <mxGeometry relative="1" as="geometry" />
        </mxCell>
        <mxCell id="DQJm9BZzZTxkYq87aLKx-3" value="Форма аутентификации" style="rounded=0;whiteSpace=wrap;html=1;" vertex="1" parent="1">
          <mxGeometry x="330" y="690" width="120" height="60" as="geometry" />
        </mxCell>
        <mxCell id="DQJm9BZzZTxkYq87aLKx-4" value="Профиль ученика" style="rounded=0;whiteSpace=wrap;html=1;" vertex="1" parent="1">
          <mxGeometry x="500" y="690" width="120" height="60" as="geometry" />
        </mxCell>
        <mxCell id="DQJm9BZzZTxkYq87aLKx-13" style="edgeStyle=orthogonalEdgeStyle;rounded=0;orthogonalLoop=1;jettySize=auto;html=1;exitX=0.25;exitY=1;exitDx=0;exitDy=0;entryX=0.25;entryY=0;entryDx=0;entryDy=0;startArrow=classic;startFill=1;" edge="1" parent="1" source="DQJm9BZzZTxkYq87aLKx-5" target="DQJm9BZzZTxkYq87aLKx-4">
          <mxGeometry relative="1" as="geometry" />
        </mxCell>
        <mxCell id="DQJm9BZzZTxkYq87aLKx-14" style="edgeStyle=orthogonalEdgeStyle;rounded=0;orthogonalLoop=1;jettySize=auto;html=1;exitX=1;exitY=0.75;exitDx=0;exitDy=0;entryX=0;entryY=0.75;entryDx=0;entryDy=0;startArrow=classic;startFill=1;" edge="1" parent="1" source="DQJm9BZzZTxkYq87aLKx-5" target="DQJm9BZzZTxkYq87aLKx-6">
          <mxGeometry relative="1" as="geometry" />
        </mxCell>
        <mxCell id="DQJm9BZzZTxkYq87aLKx-5" value="Список курсов ученика" style="rounded=0;whiteSpace=wrap;html=1;" vertex="1" parent="1">
          <mxGeometry x="500" y="550" width="120" height="60" as="geometry" />
        </mxCell>
        <mxCell id="DQJm9BZzZTxkYq87aLKx-17" style="edgeStyle=orthogonalEdgeStyle;rounded=0;orthogonalLoop=1;jettySize=auto;html=1;exitX=0.25;exitY=1;exitDx=0;exitDy=0;entryX=0.25;entryY=0;entryDx=0;entryDy=0;startArrow=classic;startFill=1;" edge="1" parent="1" source="DQJm9BZzZTxkYq87aLKx-6" target="DQJm9BZzZTxkYq87aLKx-16">
          <mxGeometry relative="1" as="geometry" />
        </mxCell>
        <mxCell id="DQJm9BZzZTxkYq87aLKx-45" style="edgeStyle=orthogonalEdgeStyle;rounded=0;orthogonalLoop=1;jettySize=auto;html=1;entryX=1;entryY=0.5;entryDx=0;entryDy=0;startArrow=classic;startFill=1;" edge="1" parent="1" source="DQJm9BZzZTxkYq87aLKx-6" target="DQJm9BZzZTxkYq87aLKx-43">
          <mxGeometry relative="1" as="geometry">
            <Array as="points">
              <mxPoint x="840" y="580" />
              <mxPoint x="840" y="340" />
            </Array>
          </mxGeometry>
        </mxCell>
        <mxCell id="DQJm9BZzZTxkYq87aLKx-6" value="&lt;div&gt;Информация о&lt;/div&gt;&lt;div&gt;&amp;nbsp;курсе&lt;/div&gt;" style="rounded=0;whiteSpace=wrap;html=1;" vertex="1" parent="1">
          <mxGeometry x="690" y="550" width="120" height="60" as="geometry" />
        </mxCell>
        <mxCell id="DQJm9BZzZTxkYq87aLKx-9" style="edgeStyle=orthogonalEdgeStyle;rounded=0;orthogonalLoop=1;jettySize=auto;html=1;exitX=0.75;exitY=0;exitDx=0;exitDy=0;entryX=0.75;entryY=1;entryDx=0;entryDy=0;startArrow=classic;startFill=1;" edge="1" parent="1" source="DQJm9BZzZTxkYq87aLKx-7" target="DQJm9BZzZTxkYq87aLKx-3">
          <mxGeometry relative="1" as="geometry" />
        </mxCell>
        <mxCell id="DQJm9BZzZTxkYq87aLKx-39" style="edgeStyle=orthogonalEdgeStyle;rounded=0;orthogonalLoop=1;jettySize=auto;html=1;exitX=1;exitY=0.75;exitDx=0;exitDy=0;entryX=0;entryY=0.75;entryDx=0;entryDy=0;startArrow=classic;startFill=1;" edge="1" parent="1" source="DQJm9BZzZTxkYq87aLKx-7" target="DQJm9BZzZTxkYq87aLKx-38">
          <mxGeometry relative="1" as="geometry" />
        </mxCell>
        <mxCell id="DQJm9BZzZTxkYq87aLKx-7" value="Профиль администартора" style="rounded=0;whiteSpace=wrap;html=1;" vertex="1" parent="1">
          <mxGeometry x="330" y="810" width="120" height="60" as="geometry" />
        </mxCell>
        <mxCell id="DQJm9BZzZTxkYq87aLKx-16" value="Форма с домашним заданием" style="rounded=0;whiteSpace=wrap;html=1;" vertex="1" parent="1">
          <mxGeometry x="690" y="680" width="120" height="60" as="geometry" />
        </mxCell>
        <mxCell id="DQJm9BZzZTxkYq87aLKx-21" style="edgeStyle=orthogonalEdgeStyle;rounded=0;orthogonalLoop=1;jettySize=auto;html=1;exitX=0.25;exitY=1;exitDx=0;exitDy=0;entryX=0.25;entryY=0;entryDx=0;entryDy=0;startArrow=classic;startFill=1;" edge="1" parent="1" source="DQJm9BZzZTxkYq87aLKx-19" target="DQJm9BZzZTxkYq87aLKx-6">
          <mxGeometry relative="1" as="geometry" />
        </mxCell>
        <mxCell id="DQJm9BZzZTxkYq87aLKx-19" value="Тест" style="rounded=0;whiteSpace=wrap;html=1;" vertex="1" parent="1">
          <mxGeometry x="690" y="390" width="120" height="60" as="geometry" />
        </mxCell>
        <mxCell id="DQJm9BZzZTxkYq87aLKx-26" style="edgeStyle=orthogonalEdgeStyle;rounded=0;orthogonalLoop=1;jettySize=auto;html=1;exitX=0.75;exitY=0;exitDx=0;exitDy=0;entryX=0.75;entryY=1;entryDx=0;entryDy=0;startArrow=classic;startFill=1;" edge="1" parent="1" source="DQJm9BZzZTxkYq87aLKx-22" target="DQJm9BZzZTxkYq87aLKx-25">
          <mxGeometry relative="1" as="geometry" />
        </mxCell>
        <mxCell id="DQJm9BZzZTxkYq87aLKx-48" style="edgeStyle=orthogonalEdgeStyle;rounded=0;orthogonalLoop=1;jettySize=auto;html=1;exitX=1;exitY=0.75;exitDx=0;exitDy=0;entryX=0.5;entryY=0;entryDx=0;entryDy=0;" edge="1" parent="1" source="DQJm9BZzZTxkYq87aLKx-22" target="DQJm9BZzZTxkYq87aLKx-4">
          <mxGeometry relative="1" as="geometry" />
        </mxCell>
        <mxCell id="DQJm9BZzZTxkYq87aLKx-22" value="Профиль преподавателя" style="rounded=0;whiteSpace=wrap;html=1;" vertex="1" parent="1">
          <mxGeometry x="330" y="590" width="120" height="60" as="geometry" />
        </mxCell>
        <mxCell id="DQJm9BZzZTxkYq87aLKx-30" style="edgeStyle=orthogonalEdgeStyle;rounded=0;orthogonalLoop=1;jettySize=auto;html=1;exitX=0.75;exitY=0;exitDx=0;exitDy=0;entryX=0.75;entryY=1;entryDx=0;entryDy=0;startArrow=classic;startFill=1;" edge="1" parent="1" source="DQJm9BZzZTxkYq87aLKx-25" target="DQJm9BZzZTxkYq87aLKx-29">
          <mxGeometry relative="1" as="geometry" />
        </mxCell>
        <mxCell id="DQJm9BZzZTxkYq87aLKx-25" value="Список курсов преподавателя" style="rounded=0;whiteSpace=wrap;html=1;" vertex="1" parent="1">
          <mxGeometry x="330" y="490" width="120" height="60" as="geometry" />
        </mxCell>
        <mxCell id="DQJm9BZzZTxkYq87aLKx-36" style="edgeStyle=orthogonalEdgeStyle;rounded=0;orthogonalLoop=1;jettySize=auto;html=1;exitX=1;exitY=0.75;exitDx=0;exitDy=0;entryX=0;entryY=0.75;entryDx=0;entryDy=0;" edge="1" parent="1" source="DQJm9BZzZTxkYq87aLKx-29" target="DQJm9BZzZTxkYq87aLKx-34">
          <mxGeometry relative="1" as="geometry" />
        </mxCell>
        <mxCell id="DQJm9BZzZTxkYq87aLKx-47" style="edgeStyle=orthogonalEdgeStyle;rounded=0;orthogonalLoop=1;jettySize=auto;html=1;exitX=0.75;exitY=0;exitDx=0;exitDy=0;entryX=0;entryY=0.5;entryDx=0;entryDy=0;startArrow=classic;startFill=1;" edge="1" parent="1" source="DQJm9BZzZTxkYq87aLKx-29" target="DQJm9BZzZTxkYq87aLKx-43">
          <mxGeometry relative="1" as="geometry" />
        </mxCell>
        <mxCell id="DQJm9BZzZTxkYq87aLKx-29" value="Модерация курса" style="rounded=0;whiteSpace=wrap;html=1;" vertex="1" parent="1">
          <mxGeometry x="330" y="390" width="120" height="60" as="geometry" />
        </mxCell>
        <mxCell id="DQJm9BZzZTxkYq87aLKx-41" style="edgeStyle=orthogonalEdgeStyle;rounded=0;orthogonalLoop=1;jettySize=auto;html=1;entryX=1;entryY=0.5;entryDx=0;entryDy=0;" edge="1" parent="1" source="DQJm9BZzZTxkYq87aLKx-34" target="DQJm9BZzZTxkYq87aLKx-25">
          <mxGeometry relative="1" as="geometry">
            <Array as="points">
              <mxPoint x="570" y="520" />
            </Array>
          </mxGeometry>
        </mxCell>
        <mxCell id="DQJm9BZzZTxkYq87aLKx-34" value="Проверка заданий" style="rounded=0;whiteSpace=wrap;html=1;" vertex="1" parent="1">
          <mxGeometry x="510" y="390" width="120" height="60" as="geometry" />
        </mxCell>
        <mxCell id="DQJm9BZzZTxkYq87aLKx-38" value="Форма созания аккаунта" style="rounded=0;whiteSpace=wrap;html=1;" vertex="1" parent="1">
          <mxGeometry x="500" y="810" width="120" height="60" as="geometry" />
        </mxCell>
        <mxCell id="DQJm9BZzZTxkYq87aLKx-43" value="&amp;nbsp;Дистанционные занятия и собрания" style="rounded=0;whiteSpace=wrap;html=1;" vertex="1" parent="1">
          <mxGeometry x="690" y="310" width="120" height="60" as="geometry" />
        </mxCell>
      </root>
    </mxGraphModel>
  </diagram>
</mxfile>
